<?xml version="1.0" encoding="UTF-8"?><svg id="Layer_2" xmlns="http://www.w3.org/2000/svg" width="320" height="320" xmlns:xlink="http://www.w3.org/1999/xlink" viewBox="0 0 320 320"><defs><style>.cls-1{fill:none;}.cls-2{clip-path:url(#clippath);}.cls-3{fill:#f79d1c;}.cls-4{fill:#f9a61a;}.cls-5{fill:#00589f;}.cls-6{fill:#f05b22;}.cls-7{fill:#e91d25;}</style><clipPath id="clippath"><rect class="cls-1" x="66.01" y="39.21" width="187.98" height="145.84"/></clipPath></defs><g id="Layer_1-2"><g><rect class="cls-1" width="320" height="320"/><g class="cls-2"><g id="Group_4777"><path id="Path_39715" d="M100.24,184.73v-9.68c.26-3.12-2.06-5.87-5.18-6.13-.31-.03-.63-.03-.94,0-2.18-.09-4.25,.95-5.49,2.74-1.08-1.8-3.07-2.86-5.17-2.74-1.8-.08-3.51,.77-4.53,2.25v-1.94h-3.38v15.48h3.42v-8.55c0-2.74,1.45-4.03,3.7-4.03s3.38,1.45,3.38,4.03v8.55h3.38v-8.55c-.25-1.96,1.13-3.75,3.09-4,.2-.03,.41-.04,.62-.03,2.25,0,3.38,1.45,3.38,4.03v8.55h3.72Zm50.18-15.48h-5.49v-4.68h-3.38v4.68h-3.06v3.06h3.06v7.11c0,3.55,1.45,5.64,5.32,5.64,1.47-.03,2.91-.42,4.19-1.13l-.98-2.91c-.87,.54-1.89,.82-2.91,.81-1.62,0-2.25-.98-2.25-2.58v-6.93h5.49v-3.06h.02Zm28.72-.34c-1.65-.03-3.19,.83-4.03,2.25v-1.94h-3.4v15.48h3.37v-8.72c0-2.58,1.13-4.03,3.23-4.03,.71,.03,1.41,.14,2.1,.32l.98-3.23c-.75-.11-1.51-.15-2.27-.13m-43.39,1.62c-1.89-1.15-4.08-1.72-6.3-1.62-3.87,0-6.45,1.94-6.45,5,0,2.58,1.94,4.03,5.32,4.53l1.62,.17c1.77,.32,2.74,.81,2.74,1.62,0,1.13-1.3,1.94-3.55,1.94-1.85,.01-3.65-.55-5.17-1.62l-1.62,2.58c1.95,1.32,4.26,1.99,6.62,1.94,4.53,0,7.11-2.1,7.11-5,0-2.74-2.1-4.19-5.32-4.68l-1.62-.17c-1.45-.17-2.58-.5-2.58-1.45,0-1.13,1.13-1.77,2.91-1.77,1.69,.07,3.35,.52,4.85,1.3l1.42-2.77Zm90-1.62c-1.65-.03-3.19,.83-4.03,2.25v-1.94h-3.38v15.48h3.38v-8.72c0-2.58,1.13-4.03,3.23-4.03,.71,.03,1.41,.14,2.1,.32l.98-3.2c-.75-.14-1.51-.2-2.27-.17m-43.23,8.08c-.18,4.28,3.15,7.89,7.43,8.06,.27,.01,.54,0,.81,0,1.98,.1,3.94-.52,5.49-1.77l-1.62-2.74c-1.14,.93-2.56,1.44-4.03,1.45-2.53,.07-4.63-1.93-4.7-4.46,0-.18,0-.36,.02-.54-.14-2.62,1.87-4.85,4.49-4.99,.06,0,.13,0,.19,0,1.47,.02,2.88,.53,4.03,1.45l1.62-2.74c-1.55-1.25-3.5-1.88-5.49-1.77-4.27-.28-7.95,2.96-8.22,7.22-.02,.28-.02,.55,0,.83m31.29,0v-7.74h-3.38v1.94c-1.16-1.49-2.96-2.33-4.85-2.25-4.45,0-8.05,3.6-8.05,8.05s3.6,8.05,8.05,8.05c1.9,.14,3.74-.71,4.85-2.25v1.94h3.41l-.03-7.72Zm-12.42,0c-.17-2.58,1.79-4.82,4.37-4.99s4.82,1.79,4.99,4.37c.01,.2,.01,.41,0,.61,.17,2.58-1.79,4.82-4.37,4.99s-4.82-1.79-4.99-4.37c-.01-.2-.01-.41,0-.61m-40.48-8.08c-4.45,.05-8.01,3.69-7.97,8.14,.05,4.45,3.69,8.01,8.14,7.97,2.28,.05,4.5-.69,6.3-2.1l-1.62-2.43c-1.3,1.01-2.89,1.58-4.53,1.62-2.29,.19-4.34-1.43-4.68-3.7h11.44v-1.3c.59-3.9-2.09-7.54-5.99-8.13-.37-.06-.74-.08-1.12-.08m0,2.91c2.08-.06,3.81,1.59,3.87,3.67,0,.01,0,.02,0,.04h-8.05c.2-2.15,2.03-3.77,4.19-3.7m84.04,5.17v-13.85h-3.38v8.05c-1.16-1.49-2.96-2.33-4.85-2.25-4.45,0-8.05,3.6-8.05,8.05s3.6,8.05,8.05,8.05h0c1.9,.14,3.74-.71,4.85-2.25v1.94h3.38v-7.73Zm-12.42,0c-.17-2.58,1.79-4.82,4.37-4.99s4.82,1.79,4.99,4.37c.01,.2,.01,.41,0,.61,.17,2.58-1.79,4.82-4.37,4.99s-4.82-1.79-4.99-4.37c-.01-.2-.01-.41,0-.61m-113.25,0v-7.74h-3.38v1.94c-1.16-1.49-2.96-2.33-4.85-2.25-4.45,0-8.05,3.6-8.05,8.05s3.6,8.05,8.05,8.05h0c1.9,.14,3.74-.71,4.85-2.25v1.94h3.38v-7.72Zm-12.58,0c-.17-2.58,1.79-4.82,4.37-4.99s4.82,1.79,4.99,4.37c.01,.2,.01,.41,0,.61,.17,2.58-1.79,4.82-4.37,4.99s-4.82-1.79-4.99-4.37c-.01-.2-.01-.41,0-.61"/><rect id="Rectangle_4743" class="cls-6" x="134.61" y="51.64" width="50.82" height="91.3"/><path id="Path_39716" class="cls-7" d="M137.99,97.28c0-17.79,8.15-34.61,22.1-45.65-25.22-19.79-61.71-15.39-81.51,9.83-19.79,25.22-15.39,61.71,9.83,81.51,10.23,8.03,22.86,12.39,35.86,12.38,13,0,25.62-4.37,35.82-12.42-13.99-11.01-22.14-27.84-22.1-45.65"/><path id="Path_39717" class="cls-3" d="M253.99,97.28c.03,32.04-25.92,58.04-57.96,58.07-13.03,.01-25.69-4.36-35.93-12.42,25.21-19.93,29.49-56.53,9.56-81.74-2.8-3.55-6.01-6.76-9.56-9.56,25.18-19.81,61.66-15.46,81.47,9.72,8.06,10.24,12.43,22.9,12.42,35.93"/></g></g><g><path id="Path_39718" class="cls-5" d="M145.59,282.91h-17.52l10.96-67.75h17.52l-10.96,67.75Z"/><path id="Path_39719" class="cls-5" d="M209.1,216.81c-5.01-1.93-10.33-2.91-15.69-2.89-17.3,0-29.48,9.22-29.56,22.41-.14,9.73,8.72,15.14,15.35,18.38,6.78,3.32,9.08,5.48,9.08,8.43-.07,4.56-5.48,6.63-10.52,6.63-5.69,.16-11.33-1.08-16.44-3.6l-2.31-1.08-2.45,15.19c6.23,2.42,12.86,3.64,19.54,3.6,18.38,0,30.37-9.08,30.49-23.14,.07-7.71-4.61-13.62-14.68-18.45-6.13-3.1-9.88-5.19-9.88-8.36,.07-2.89,3.17-5.84,10.09-5.84,4.49-.13,8.95,.75,13.05,2.59l1.58,.72,2.34-14.6Z"/><path id="Path_39720" class="cls-5" d="M232.39,258.9c1.44-3.89,7-18.96,7-18.96-.07,.15,1.44-3.96,2.3-6.48l1.23,5.84s3.32,16.2,4.05,19.61h-14.57Zm21.62-43.75h-13.55c-3.99-.48-7.78,1.85-9.16,5.62l-26.02,62.13h18.38l3.68-10.16h22.49c.51,2.38,2.09,10.16,2.09,10.16h16.2l-14.1-67.76Z"/><path id="Path_39721" class="cls-5" d="M113.44,215.15l-17.16,46.2-1.87-9.37c-4.27-12.14-12.9-22.27-24.22-28.4l15.69,59.23h18.53l27.54-67.68-18.51,.02Z"/><path id="Path_39722" class="cls-4" d="M80.36,215.15h-28.19l-.29,1.37c21.98,5.62,36.55,19.17,42.52,35.46l-6.13-31.14c-.78-3.66-4.21-6.13-7.93-5.69"/></g></g></g></svg>