<?xml version="1.0" encoding="UTF-8"?><svg id="Layer_2" xmlns="http://www.w3.org/2000/svg" width="320" height="320" viewBox="0 0 320 320"><defs><style>.cls-1{fill:none;}.cls-2{fill:#1a1a1a;}</style></defs><g id="Layer_1-2"><g><g id="surface1"><path class="cls-2" d="M193.74,54.89H94.3c-1.96,0-3.55,1.59-3.55,3.55V250.2c0,1.96,1.59,3.55,3.55,3.55h78.99c.44,4.11,1.43,8.13,2.94,11.97l6.6-2.64c-4.14-10.35-3.66-21.99,1.33-31.96l2.1-4.2c.68-1.37,.41-3.02-.67-4.1l-30.19-30.19c-3.52-3.52-3.52-9.22,0-12.73,3.57-3.39,9.17-3.39,12.73,0l37.29,37.29,5.02-5.02-13.16-13.16v-35.25l16.95,19.38c5.1,5.83,7.91,13.31,7.91,21.05v63.76h7.1v-63.76c0-9.46-3.43-18.61-9.66-25.73l-22.3-25.48V58.44c0-1.96-1.59-3.55-3.55-3.55ZM97.85,239.55h76.04c-.49,2.34-.8,4.72-.92,7.1H97.85v-7.1Zm79.95-11.59c-.73,1.46-1.38,2.96-1.95,4.49H97.85v-7.1h80.21l.71,.71-.97,1.9Zm-31.85-38.73c-1.48,.99-3.47,.74-4.65-.6-1.18-1.34-1.18-3.35,0-4.69,1.18-1.34,3.17-1.6,4.65-.6-.36,1.95-.36,3.95,0,5.89Zm4.43-14.34c-.58,.6-1.11,1.25-1.58,1.94-4.48-2.34-9.99-1.21-13.18,2.72-3.2,3.92-3.2,9.54,0,13.46,3.19,3.92,8.7,5.05,13.18,2.72,.47,.69,1,1.34,1.58,1.94l6.37,6.37h-34.49c-1.3-5-5.21-8.9-10.21-10.2v-37.44c8.62,8.12,20.12,12.48,31.96,12.13,11.84,.36,23.34-4.01,31.96-12.13v21.31l-2.82-2.82c-6.29-6.28-16.49-6.28-22.78,0Zm25.59-51.06c-8.62-8.12-20.12-12.48-31.96-12.13-11.84-.36-23.34,4.01-31.96,12.13v-37.44c5-1.3,8.9-5.2,10.21-10.2h43.51c1.3,5,5.21,8.9,10.21,10.2v37.44Zm0,16.28c0,11.75-14.34,21.31-31.96,21.31s-31.96-9.56-31.96-21.31,14.34-21.31,31.96-21.31,31.96,9.56,31.96,21.31Zm7.1,44.7V83.3c0-1.96-1.59-3.55-3.55-3.55-3.92,0-7.1-3.18-7.1-7.1,0-1.96-1.59-3.55-3.55-3.55h-49.72c-1.96,0-3.55,1.59-3.55,3.55,0,3.92-3.18,7.1-7.1,7.1-1.96,0-3.55,1.59-3.55,3.55v113.64c0,1.96,1.59,3.55,3.55,3.55,3.92,0,7.1,3.18,7.1,7.1,0,1.96,1.59,3.55,3.55,3.55h44.7l7.1,7.1H97.85V61.99h92.33V191.91l-7.1-7.1Z"/><path class="cls-2" d="M144.02,83.3c-5.88,0-10.65,4.77-10.65,10.65s4.77,10.65,10.65,10.65,10.65-4.77,10.65-10.65-4.77-10.65-10.65-10.65Zm0,14.2c-1.96,0-3.55-1.59-3.55-3.55s1.59-3.55,3.55-3.55,3.55,1.59,3.55,3.55-1.59,3.55-3.55,3.55Z"/></g><rect class="cls-1" width="320" height="320"/></g></g></svg>