<?xml version="1.0" encoding="UTF-8"?><svg id="Layer_2" xmlns="http://www.w3.org/2000/svg" width="320" height="320" xmlns:xlink="http://www.w3.org/1999/xlink" viewBox="0 0 320 320"><defs><style>.cls-1{fill:none;}.cls-2{clip-path:url(#clippath);}.cls-3{fill:#04255e;}</style><clipPath id="clippath"><rect class="cls-1" x="26.89" y="132.11" width="266.23" height="55.78"/></clipPath></defs><g id="Layer_1-2"><g><g class="cls-2"><g id="Group_4997"><path id="Path_39735" class="cls-3" d="M286.76,132.67h-35.71c-4.13,.11-7.59,3.16-8.21,7.25-.57,3.38,1.71,6.59,5.09,7.17,.4,.07,.8,.1,1.21,.08h10.03l-4.34,32.91c-.62,3.64,1.84,7.1,5.48,7.72,.43,.07,.86,.1,1.3,.09,4.45-.12,8.17-3.41,8.84-7.81l4.34-32.91h10.03c4.13-.11,7.59-3.16,8.21-7.25,.57-3.39-1.71-6.6-5.1-7.17-.39-.06-.78-.09-1.17-.08"/><path id="Path_39736" class="cls-3" d="M67.75,132.67h-26.78c-4.45,.12-8.17,3.41-8.84,7.81l-5.19,39.05c-.62,3.64,1.84,7.1,5.48,7.72,.43,.07,.86,.1,1.29,.09h26.78c4.13-.11,7.59-3.16,8.21-7.25,.57-3.39-1.71-6.6-5.1-7.17-.4-.07-.8-.09-1.2-.08h-18.96l3.42-25.66h18.96c4.13-.11,7.59-3.16,8.21-7.25,.58-3.39-1.7-6.6-5.09-7.17-.4-.07-.8-.1-1.21-.09"/><path id="Path_39737" class="cls-3" d="M49.46,160.02c0,4.78,3.88,8.66,8.66,8.66,4.78,0,8.66-3.88,8.66-8.66,0-4.78-3.88-8.66-8.66-8.66s-8.66,3.88-8.66,8.66h0"/><path id="Path_39738" class="cls-3" d="M231.9,132.11c-4.45,.12-8.17,3.41-8.84,7.81l-1.65,12.25h-16.18l1.61-12.27c.61-3.65-1.86-7.1-5.5-7.7-.41-.07-.84-.1-1.26-.09-4.45,.12-8.17,3.41-8.84,7.81l-5.29,40.16c-.62,3.64,1.84,7.1,5.48,7.72,.43,.07,.86,.1,1.3,.09,4.45-.12,8.17-3.41,8.84-7.81l1.76-13.39h16.18l-1.76,13.39c-.62,3.64,1.84,7.1,5.48,7.72,.43,.07,.86,.1,1.3,.09,4.45-.12,8.17-3.41,8.84-7.81l5.28-40.16c.62-3.64-1.84-7.1-5.48-7.72-.42-.07-.85-.1-1.28-.09"/><path id="Path_39739" class="cls-3" d="M157.45,132.11c-16.32-.73-30.28,11.61-31.56,27.89-2.28,17.57,7.47,27.89,24.22,27.89,16.31,.71,30.26-11.62,31.56-27.89,2.35-17.47-7.44-27.89-24.22-27.89m8.6,27.89c-.18,7.57-6.46,13.56-14.04,13.39-7.67,0-11.65-4.74-10.49-13.39,.16-7.55,6.41-13.55,13.96-13.39,.02,0,.05,0,.07,0,7.58,0,11.65,4.74,10.49,13.39"/><path id="Path_39740" class="cls-3" d="M157.45,132.11c-16.32-.73-30.28,11.61-31.56,27.89-2.28,17.57,7.47,27.89,24.22,27.89,16.31,.71,30.26-11.62,31.56-27.89,2.35-17.47-7.44-27.89-24.22-27.89m8.6,27.89c-.18,7.57-6.46,13.56-14.04,13.39-7.67,0-11.65-4.74-10.49-13.39,.16-7.55,6.41-13.55,13.96-13.39,.02,0,.05,0,.07,0,7.58,0,11.65,4.74,10.49,13.39"/><path id="Path_39741" class="cls-3" d="M119.82,132.11c-2.19,.03-4.28,.89-5.87,2.39h0l-.13,.1v.03l-18.82,17.73,1.64-12.44c.62-3.65-1.84-7.1-5.48-7.72-.43-.07-.87-.1-1.31-.09-4.45,.11-8.18,3.4-8.85,7.81l-5.29,40.16c-.62,3.64,1.84,7.1,5.48,7.72,.43,.07,.87,.1,1.3,.09,4.45-.12,8.17-3.41,8.84-7.81l1.8-13.68,15.4,18.85,.07,.09,.12,.15h0c1.3,1.49,3.19,2.32,5.16,2.28,4.36-.13,8.01-3.35,8.66-7.67,.3-1.97-.27-3.97-1.57-5.47h0l-13.26-15.26,15.66-14.04h0c1.69-1.4,2.8-3.38,3.12-5.56,.6-3.58-1.81-6.97-5.39-7.58-.42-.07-.84-.1-1.27-.09"/></g></g><rect class="cls-1" width="320" height="320"/></g></g></svg>