<?xml version="1.0" encoding="UTF-8"?><svg id="Layer_2" xmlns="http://www.w3.org/2000/svg" width="320" height="320" xmlns:xlink="http://www.w3.org/1999/xlink" viewBox="0 0 320 320"><defs><style>.cls-1{fill:none;}.cls-2{fill:url(#linear-gradient);}.cls-3{clip-path:url(#clippath);}.cls-4{fill:url(#linear-gradient-2);}.cls-5{fill:#252526;fill-rule:evenodd;}</style><linearGradient id="linear-gradient" x1="10.49" y1="160" x2="87.45" y2="160" gradientUnits="userSpaceOnUse"><stop offset="0" stop-color="#9d0a35"/><stop offset=".02" stop-color="#9d0a35"/><stop offset=".15" stop-color="#9d0a35"/><stop offset=".23" stop-color="#b20c2c"/><stop offset=".31" stop-color="#c30f25"/><stop offset=".42" stop-color="#cf1021"/><stop offset=".58" stop-color="#d6111e"/><stop offset="1" stop-color="#d8121e"/></linearGradient><clipPath id="clippath"><path class="cls-2" d="M48.95,115.16c-.47,0-.94,.1-1.36,.3l-35.17,19.19,39.37,22.9c.39,.23,.63,.65,.64,1.1v33.43c0,.46-.27,.88-.68,1.1l-2.12,1.17c-.2,.11-.42,.16-.64,.15h-.04c-.24,0-.47-.05-.68-.15l-2.12-1.17c-.39-.23-.63-.65-.64-1.1v-29.79c-.01-.23-.14-.45-.34-.57l-34.68-20.21v39.52c.04,.99,.57,1.89,1.4,2.42l35.7,21.05c.42,.22,.89,.34,1.36,.34h0c.49,0,.97-.12,1.4-.34l35.74-21.05c.83-.53,1.34-1.44,1.36-2.42v-39.52l-23.51,13.7c-.41,.19-.88,.19-1.29,0l-2.08-1.25c-.17-.15-.32-.31-.45-.49h0c-.11-.21-.19-.44-.23-.68v-2.42c-.03-.45,.19-.89,.57-1.14l25.02-14.57-35.09-19.19c-.43-.23-.91-.33-1.4-.3h-.04Z"/></clipPath><linearGradient id="linear-gradient-2" x1="486.25" y1="-32.73" x2="490.04" y2="-32.73" gradientTransform="translate(-14766.23 -858.15) scale(30.35 -31.11)" xlink:href="#linear-gradient"/></defs><g id="Layer_1-2"><g><g id="Layer_2-2"><path id="Path_39728" class="cls-5" d="M265.33,157.52c-3.21-1.39-6.85-1.41-10.07-.04-2.81,1.59-4.49,4.64-4.32,7.87-.34,3.74,1.62,7.32,4.96,9.05,3.03,1.06,6.31,1.21,9.43,.42,0,0,0-17.3,0-17.3Zm0-22.83h8.86v46.64c-4.3,.98-8.69,1.48-13.1,1.48-10.49,0-18.81-4.69-19.15-17.07-.15-5.2,2.12-10.17,6.13-13.48,5.03-3.53,11.44-4.46,17.26-2.5v-15.07Z"/><path id="Path_39729" class="cls-5" d="M154.49,182.28c10.22,0,18.47-5,18.4-17.38,.19-12.27-9.01-17.15-19.42-16.58-4.29,.32-8.51,1.27-12.53,2.8v43.61h8.82v-37.86c3.57-1.14,7.45-.87,10.83,.76,4.1,3.28,4.76,9.26,1.47,13.36-1.85,2.3-4.66,3.62-7.61,3.56v7.68l.04,.04Z"/><path id="Path_39730" class="cls-5" d="M191.4,155.93c4.05,.26,5.38,2.08,5.87,6.32h-12.72c.57-3.48,2.01-6.44,6.85-6.32m-.23-7.8c12.19-.11,15.44,7.31,14.99,21.09h-21.62c1.14,6.81,7.87,8.74,19.76,3.37v8.1c-18.97,5.79-27.9,.23-28.5-14.76,0-11.77,5.14-17.7,15.41-17.79"/><path id="Path_39731" class="cls-5" d="M224.45,156.08c4.05,.26,5.38,2.08,5.87,6.32h-12.72c.61-3.48,2.01-6.44,6.85-6.32m-.23-7.8c12.19-.11,15.44,7.31,14.99,21.09h-21.62c1.14,6.81,7.87,8.74,19.76,3.37v8.14c-18.97,5.79-27.9,.23-28.5-14.76,0-11.77,5.14-17.7,15.41-17.79"/><path id="Path_39732" class="cls-5" d="M125.12,148.29c3.54-.12,7.04,.83,10.03,2.73v7.95c-5.11-4.01-13.06-5-13.7-1.06-1.32,7.23,17,.04,15.63,15.71-.91,6.7-6.02,9.01-12.68,9.2-3.87,.22-7.73-.64-11.13-2.5v-8.18c5.68,3.79,13.89,5.07,15.07,1.17,1.59-6.59-16.32-1.51-15.33-14.54,.15-6.51,4.16-10.03,12.11-10.49"/><path id="Path_39733" class="cls-5" d="M276.65,148.93h9.27l7.23,20.29,7.12-20.29h9.24l-15.75,45.8h-9.35l3.94-11.92-11.7-33.88Z"/><g><path class="cls-2" d="M48.95,115.16c-.47,0-.94,.1-1.36,.3l-35.17,19.19,39.37,22.9c.39,.23,.63,.65,.64,1.1v33.43c0,.46-.27,.88-.68,1.1l-2.12,1.17c-.2,.11-.42,.16-.64,.15h-.04c-.24,0-.47-.05-.68-.15l-2.12-1.17c-.39-.23-.63-.65-.64-1.1v-29.79c-.01-.23-.14-.45-.34-.57l-34.68-20.21v39.52c.04,.99,.57,1.89,1.4,2.42l35.7,21.05c.42,.22,.89,.34,1.36,.34h0c.49,0,.97-.12,1.4-.34l35.74-21.05c.83-.53,1.34-1.44,1.36-2.42v-39.52l-23.51,13.7c-.41,.19-.88,.19-1.29,0l-2.08-1.25c-.17-.15-.32-.31-.45-.49h0c-.11-.21-.19-.44-.23-.68v-2.42c-.03-.45,.19-.89,.57-1.14l25.02-14.57-35.09-19.19c-.43-.23-.91-.33-1.4-.3h-.04Z"/><g class="cls-3"><g id="Group_4999"><rect id="Rectangle_4782" class="cls-4" x="-8.47" y="101.14" width="114.89" height="117.77" transform="translate(-84.28 58.79) rotate(-35.76)"/></g></g></g></g><rect class="cls-1" width="320" height="320"/></g></g></svg>